<svg width="500" height="500" viewBox="0 0 500 500" fill="none" xmlns="http://www.w3.org/2000/svg">
<path d="M344.999 125C344.999 159.518 317.017 187.5 282.499 187.5C247.981 187.5 219.999 159.518 219.999 125C219.999 90.4822 247.981 62.5 282.499 62.5C317.017 62.5 344.999 90.4822 344.999 125Z" fill="#B4C6FD"/>
<path d="M125 281.25V343.75C125 365.264 142.487 382.75 164 382.75H344C365.514 382.75 383 365.264 383 343.75V281.25" fill="white" stroke="#1976D2" stroke-width="5"/>
<path fill-rule="evenodd" clip-rule="evenodd" d="M365.5 150V156.25H385.5V150H365.5ZM358 175V150C358 145.858 361.358 142.5 365.5 142.5H385.5C389.642 142.5 393 145.858 393 150V175C393 179.142 389.642 182.5 385.5 182.5H365.5C361.358 182.5 358 179.142 358 175Z" fill="#1976D2"/>
<path d="M365.5 156.25H385.5V175C385.5 175 385.5 175 385.5 175H365.5C365.5 175 365.5 175 365.5 175V156.25Z" fill="#B4C6FD"/>
<path fill-rule="evenodd" clip-rule="evenodd" d="M345.5 150V156.25H365.5V150H345.5ZM338 175V150C338 145.858 341.358 142.5 345.5 142.5H365.5C369.642 142.5 373 145.858 373 150V175C373 179.142 369.642 182.5 365.5 182.5H345.5C341.358 182.5 338 179.142 338 175Z" fill="#1976D2"/>
<path d="M345.5 156.25H365.5V175C365.5 175 365.5 175 365.5 175H345.5C345.5 175 345.5 175 345.5 175V156.25Z" fill="#B4C6FD"/>
<path fill-rule="evenodd" clip-rule="evenodd" d="M375.5 200V206.25H395.5V200H375.5ZM368 225V200C368 195.858 371.358 192.5 375.5 192.5H395.5C399.642 192.5 403 195.858 403 200V225C403 229.142 399.642 232.5 395.5 232.5H375.5C371.358 232.5 368 229.142 368 225Z" fill="#1976D2"/>
<path d="M375.5 206.25H395.5V225C395.5 225 395.5 225 395.5 225H375.5C375.5 225 375.5 225 375.5 225V206.25Z" fill="#B4C6FD"/>
<path fill-rule="evenodd" clip-rule="evenodd" d="M355.5 200V206.25H375.5V200H355.5ZM348 225V200C348 195.858 351.358 192.5 355.5 192.5H375.5C379.642 192.5 383 195.858 383 200V225C383 229.142 379.642 232.5 375.5 232.5H355.5C351.358 232.5 348 229.142 348 225Z" fill="#1976D2"/>
<path d="M355.5 206.25H375.5V225C375.5 225 375.5 225 375.5 225H355.5C355.5 225 355.5 225 355.5 225V206.25Z" fill="#B4C6FD"/>
<path d="M130.75 281.25H375.25V214.987C375.25 199.539 362.698 187 347.232 187H158.768C143.302 187 130.75 199.539 130.75 214.987V281.25Z" fill="#1976D2"/>
<path d="M185.248 162.5H252.499V62.5H185.248C159.035 62.5 137.748 83.75 137.748 109.917V115.083C137.748 141.25 159.035 162.5 185.248 162.5Z" fill="#1976D2"/>
<path d="M177.498 125H242.499V100H177.498C174.186 100 171.498 102.686 171.498 106V119C171.498 122.314 174.186 125 177.498 125Z" fill="white"/>
<path d="M282.499 187.5C282.499 187.5 295.499 227.5 309.999 235C309.999 235 324.499 243.5 348.499 235" stroke="#1976D2" stroke-width="5" stroke-linecap="round"/>
<path d="M172.498 235C196.498 243.5 210.999 235 210.999 235C225.499 227.5 238.499 187.5 238.499 187.5" stroke="#1976D2" stroke-width="5" stroke-linecap="round"/>
<path d="M200 317.5L216.5 322.5M228 324.375L242.5 320M253.5 317.5L268.5 315M281 315L295.5 317.5" stroke="#1976D2" stroke-width="5" stroke-linecap="round"/>
<circle cx="260" cy="125" r="7.5" stroke="white" stroke-width="5"/>
</svg>
