<svg width="1440" height="900" viewBox="0 0 1440 900" fill="none" xmlns="http://www.w3.org/2000/svg">
<path d="M1070.71 33.0774C1070.71 33.0774 1315.61 84.3574 1256.31 211.567C1197.01 338.777 1266.21 395.717 1323.01 434.107C1379.81 472.497 1471.41 564.107 1378.91 701.237C1286.41 838.367 1440 869.997 1440 869.997V0.00744629H1070.71V33.0774Z" fill="white"/>
<path d="M0 900H1440V835.997C1440 835.997 1360.51 869.207 1259.61 805.877C1158.71 742.547 1071.01 756.927 987.21 826.587C903.41 896.247 779.39 810.357 678.49 717.857C577.59 625.347 548.39 713.677 439.49 726.617C330.59 739.557 300.49 590.077 300.49 590.077C300.49 590.077 207.1 460.617 128.29 576.237C49.48 691.857 0 695.497 0 695.497V900Z" fill="white"/>
</svg>
